<svg width="17" height="16" viewBox="0 0 17 16" fill="none"
    xmlns="http://www.w3.org/2000/svg">
    <g clip-path="url(#clip0_179_60)">
        <path fill-rule="evenodd" clip-rule="evenodd" d="M8.24915 1.60321C11.7509 1.60321 14.5891 4.47436 14.5891 8.01639C14.5891 11.5581 11.7509 14.4293 8.24915 14.4293C4.7474 14.4293 1.9089 11.5581 1.9089 8.01639C1.9089 4.47436 4.7474 1.60321 8.24915 1.60321ZM3.54462 13.9611C2.48994 13.7276 1.47512 13.6865 0.754839 12.49C0.0832762 11.2266 0.59982 10.3133 0.906812 9.31421C0.980723 10.9365 2.19457 13.08 3.54434 13.9611H3.54462ZM2.33354 3.41735C2.5489 2.3469 2.57409 1.31985 3.74614 0.57336C4.98518 -0.124687 5.89564 0.384078 6.88748 0.679481C5.28498 0.779162 3.18448 2.03889 2.33354 3.41735ZM12.8634 2.08733C13.9184 2.32086 14.9329 2.36202 15.6535 3.55847C16.3248 4.82212 15.8082 5.73521 15.5015 6.73426C15.4271 5.11165 14.2132 2.9685 12.8634 2.08733ZM14.1692 12.618C13.9405 13.6853 13.9021 14.7118 12.7209 15.4429C11.473 16.1247 10.5689 15.6042 9.58093 15.2959C11.1848 15.2175 13.3011 13.9849 14.1695 12.618H14.1692ZM8.24915 7.16043C7.78216 7.16043 7.4032 7.54375 7.4032 8.01639C7.4032 8.48904 7.78216 8.87236 8.24915 8.87236C8.71642 8.87236 9.09539 8.48904 9.09539 8.01639C9.09539 7.54375 8.71642 7.16043 8.24915 7.16043ZM5.51584 8.15724C4.5229 8.15724 3.71791 8.9712 3.71791 9.97557C3.71791 10.9799 4.5229 11.7939 5.51584 11.7939C6.50852 11.7939 7.31351 10.9799 7.31351 9.97557C7.31351 8.9712 6.50852 8.15724 5.51584 8.15724ZM10.0526 9.03616C9.05968 9.03616 8.25497 9.85013 8.25497 10.8545C8.25497 11.8589 9.05968 12.6728 10.0526 12.6728C11.0453 12.6728 11.8503 11.8589 11.8503 10.8545C11.8503 9.85013 11.0453 9.03616 10.0526 9.03616ZM10.996 4.24392C10.0034 4.24392 9.19837 5.05816 9.19837 6.06225C9.19837 7.06662 10.0034 7.88059 10.996 7.88059C11.989 7.88059 12.7937 7.06662 12.7937 6.06225C12.7937 5.05816 11.989 4.24392 10.996 4.24392ZM6.43571 3.36219C5.44276 3.36219 4.63778 4.17616 4.63778 5.18053C4.63778 6.1849 5.44276 6.99886 6.43571 6.99886C7.42839 6.99886 8.23337 6.1849 8.23337 5.18053C8.23337 4.17616 7.42839 3.36219 6.43571 3.36219Z" fill="#202020"/>
    </g>
    <defs>
        <clipPath id="clip0_179_60">
            <rect width="15.5556" height="15.5556" fill="white" transform="translate(0.722168 0.222229)"/>
        </clipPath>
    </defs>
</svg>
