<svg width="17" height="16" viewBox="0 0 17 16" fill="none"
    xmlns="http://www.w3.org/2000/svg">
    <path fill-rule="evenodd" clip-rule="evenodd" d="M0.636719 7.99221C0.636719 3.65371 4.15377 0.136658 8.49227 0.136658H12.9673C14.8343 0.136658 16.3478 1.65017 16.3478 3.51718V7.52647C16.3478 12.1222 12.6223 15.8478 8.02653 15.8478H1.33534V12.4168H2.3755V14.8076H8.02653C12.0478 14.8076 15.3077 11.5477 15.3077 7.52647V3.51718C15.3077 2.22464 14.2598 1.17682 12.9673 1.17682H8.49227C4.72823 1.17682 1.67688 4.22817 1.67688 7.99221H0.636719Z" fill="black"/>
    <path fill-rule="evenodd" clip-rule="evenodd" d="M13.4331 1.23117H11.6128V3.3115C11.6128 4.17319 12.3113 4.87174 13.173 4.87174H15.2534V3.05146C15.2534 2.04614 14.4384 1.23117 13.4331 1.23117ZM10.5726 0.19101V3.3115C10.5726 4.74766 11.7369 5.9119 13.173 5.9119H16.2935V3.05146C16.2935 1.47167 15.0129 0.19101 13.4331 0.19101H10.5726Z" fill="black"/>
    <path fill-rule="evenodd" clip-rule="evenodd" d="M5.89185 7.99222C5.89185 6.55606 7.05609 5.39182 8.49225 5.39182C9.92842 5.39182 11.0927 6.55606 11.0927 7.99222C11.0927 9.42838 9.92842 10.5926 8.49225 10.5926C7.05609 10.5926 5.89185 9.42838 5.89185 7.99222ZM8.49225 6.43198C7.63055 6.43198 6.93201 7.13052 6.93201 7.99222C6.93201 8.85392 7.63055 9.55246 8.49225 9.55246C9.35395 9.55246 10.0525 8.85392 10.0525 7.99222C10.0525 7.13052 9.35395 6.43198 8.49225 6.43198Z" fill="black"/>
    <path fill-rule="evenodd" clip-rule="evenodd" d="M1.33521 12.6729C1.33521 10.9496 2.73229 9.55246 4.45569 9.55246H8.46497V10.5926H4.45569C3.30676 10.5926 2.37537 11.524 2.37537 12.6729V13.4531H1.33521V12.6729Z" fill="black"/>
    <path fill-rule="evenodd" clip-rule="evenodd" d="M1.33521 15.2733C1.33521 13.5499 2.73229 12.1528 4.45569 12.1528H5.6317C5.91893 12.1528 6.15178 12.3856 6.15178 12.6729C6.15178 12.9601 5.91893 13.1929 5.6317 13.1929H4.45569C3.30676 13.1929 2.37537 14.1243 2.37537 15.2733V15.5333H1.33521V15.2733Z" fill="black"/>
    <path fill-rule="evenodd" clip-rule="evenodd" d="M1.67688 7.99213C1.67688 9.01014 1.78434 10.0484 2.53752 11.3396L1.63905 11.8637C0.762129 10.3604 0.636719 9.12124 0.636719 7.99213H1.67688Z" fill="black"/>
</svg>
