<svg width="17" height="16" viewBox="0 0 17 16" fill="none"
    xmlns="http://www.w3.org/2000/svg">
    <g clip-path="url(#clip0_179_124)">
        <path d="M4.3195 10.311L7.07835 12.0732L9.8372 10.311C10.0185 10.1952 10.2947 10.3059 10.2947 10.5739V13.5139C10.2947 13.721 10.4152 13.787 10.5461 13.7035L13.2698 11.9638C13.3846 11.8905 13.4348 11.7482 13.4348 11.5924V8.45487C13.4348 8.34216 13.3063 8.13944 13.1039 8.26867L10.6319 9.84695C10.4823 9.94253 10.2184 9.84138 10.2184 9.59346V6.26668L7.53261 4.50302C7.32877 4.37276 7.33642 4.02172 7.57451 3.86958L9.67433 2.5289C9.82078 2.44871 9.87603 2.20666 9.66846 2.07403L7.15918 0.471903C6.90074 0.306859 6.79396 0.340611 6.60058 0.464161L3.84004 2.22669L6.33047 3.81354C6.62718 4.00294 6.65266 4.51603 6.37004 4.69645L3.92134 6.25987L3.93851 6.27081V9.59346C3.93851 9.84138 3.67456 9.94243 3.52495 9.84695L1.05301 8.26867C0.850566 8.13944 0.722139 8.34216 0.722139 8.45487V11.5924C0.722139 11.7483 0.772259 11.8905 0.88706 11.9638L3.61082 13.7035C3.74158 13.787 3.86216 13.7211 3.86216 13.5139V10.5739C3.86216 10.3059 4.13834 10.1952 4.31969 10.311H4.3195ZM16.2777 2.33723L13.3425 4.20741L10.4269 2.3458C10.2907 2.27128 10.2394 2.04616 10.4324 1.92292L12.7652 0.433506C13.0054 0.280126 13.1047 0.311504 13.2846 0.426281L16.2776 2.33733V5.6095C16.2776 5.85402 16.2447 5.94424 16.0903 6.04281L13.7325 7.54884C13.4899 7.70377 13.3394 7.55575 13.3394 7.37781V4.2134L16.2776 2.33744L16.2777 2.33723ZM0.722046 4.21732L3.6572 6.0875L6.14623 4.49828C6.2824 4.42375 6.33373 4.19864 6.14072 4.0754L3.80794 2.58598C3.5677 2.4325 3.46839 2.46388 3.28854 2.57876L0.722139 4.21742V7.38854C0.722139 7.63306 0.755086 7.72328 0.90946 7.82185L3.26726 9.32788C3.50983 9.48281 3.66038 9.33479 3.66038 9.15675V6.09338L0.722139 4.21742L0.722046 4.21732ZM9.81331 14.1726L7.23861 15.8171C7.19726 15.8435 7.14695 15.8767 7.07835 15.8846C7.00984 15.8767 6.95954 15.8435 6.91819 15.8171L4.34349 14.1726C4.17511 14.065 4.14021 14.0206 4.14021 13.7402V11.0076C4.14021 10.8167 4.31045 10.6548 4.52997 10.795L7.07835 12.4221L9.62673 10.795C9.84626 10.6548 10.0165 10.8167 10.0165 11.0076V13.7402C10.0165 14.0206 9.98159 14.0649 9.81322 14.1726H9.81331Z" fill="#202020"/>
    </g>
    <defs>
        <clipPath id="clip0_179_124">
            <rect width="15.5556" height="15.5556" fill="white" transform="translate(0.722168 0.222229)"/>
        </clipPath>
    </defs>
</svg>
