<svg width="15" height="15" viewBox="0 0 15 15" fill="none"
    xmlns="http://www.w3.org/2000/svg">
    <g clip-path="url(#clip0_179_63)">
        <path fill-rule="evenodd" clip-rule="evenodd" d="M8.17892 6.22291V4.86966H5.1944V14.2225H8.21302V8.67994C8.21302 7.7881 9.31891 6.9129 10.2251 7.16717C10.8526 7.34332 11.344 7.92771 11.344 8.80266V14.2222H14.3447V8.04136C14.3447 7.00437 13.8274 5.93311 12.9707 5.29958C11.5928 4.28048 9.29512 4.38203 8.17892 6.22266V6.22291ZM2.02907 0.222229C2.95907 0.222229 3.71293 0.996633 3.71293 1.95197C3.71293 2.90732 2.95907 3.68172 2.02907 3.68172C1.09907 3.68172 0.345215 2.90732 0.345215 1.95197C0.345215 0.996633 1.09907 0.222229 2.02907 0.222229ZM0.517427 4.86966H3.60033V14.2225H0.517427V4.86966Z" fill="#202020"/>
    </g>
    <defs>
        <clipPath id="clip0_179_63">
            <rect width="14" height="14" fill="white" transform="translate(0.5 0.222229)"/>
        </clipPath>
    </defs>
</svg>
